<svg preserveAspectRatio="xMidYMid meet" id="comp-kffocwbmsvgcontent" data-bbox="28.2 43.5 143.2 113" viewBox="28.2 43.5 143.2 113" height="70" width="70" xmlns="http://www.w3.org/2000/svg" data-type="color" role="img">
    <g>
        <path fill="#ba7a32" d="M157.2 100c0 31.204-25.475 56.5-56.9 56.5-31.425 0-56.9-25.296-56.9-56.5s25.475-56.5 56.9-56.5c31.425 0 56.9 25.296 56.9 56.5z" data-color="1"></path>
        <path d="M163.9 77.9l-57.6-8c-.8-1-2.1-1.6-3.4-1.6h-6c-1.4 0-2.6.6-3.4 1.6l-57.3 7.9c-1.9.3-3.3 1.9-3.3 3.9v56c0 1.2.5 2.2 1.4 3 .7.6 1.6 1 2.5 1h.5l55.5-8.3c.7 1.5 2.3 2.7 4.2 2.7h6c1.9 0 3.4-1.1 4.2-2.7l55.8 8.3h.5c.9 0 1.8-.4 2.5-1 .9-.7 1.4-1.8 1.4-3V81.8c-.1-2-1.5-3.6-3.5-3.9z" fill="#C4C9C7" data-color="2"></path>
        <path d="M169.3 68.7s-5.5 3.9-14.5 4.9l.3-19.9c-6.5 6.7-13.4 8.3-21.9 5.9-9.1-2.5-15.2-4.6-22.1-2.5-8.8 2.5-11.3 10.3-11.4 10.8-.2-.4-2.7-8.3-11.4-10.8-7-2-13 0-22.1 2.5-8.6 2.3-15.5.8-21.9-5.9l.3 19.8c-8.7-1.1-13.9-4.8-13.9-4.8-.2-.2 0 55.5 0 55.5s7.2 5.1 18.6 5.1 23.4-8.7 34-8.7 16.5 4.7 16.5 4.7h.5s5.9-4.7 16.5-4.7 22.6 8.7 34 8.7c11.4 0 18.6-5.1 18.6-5.1s.1-55.7-.1-55.5z" fill="#ba7a32" data-color="3"></path>
        <path d="M171.4 77.4v-6.3c0-3.1 0-3.7-1.3-4.2-.6-.3-1.4-.2-1.9.2-.1 0-4.3 3-11.3 4.2l.2-17.7c0-.8-.5-1.5-1.3-1.8-.7-.3-1.6-.1-2.2.4-5.8 6-11.8 7.6-20 5.4l-2.3-.6c-8.1-2.2-14-3.9-20.9-1.9-5.7 1.7-9.1 5.3-10.9 8.2-1.8-2.9-5.2-6.5-10.9-8.2-6.9-2-12.8-.4-20.9 1.9l-2.3.6c-8.2 2.2-14.2.6-20-5.4-.5-.5-1.4-.7-2.2-.4-.7.3-1.3 1-1.3 1.8l.3 17.7c-6.7-1.3-10.8-4.1-10.8-4.1-.5-.4-1.3-.4-1.9-.2-1.3.5-1.3 1.1-1.3 4.2v25.4c0 13.9.1 27.7.1 27.7 0 .6.3 1.3.8 1.6.3.2 7.9 5.5 19.8 5.5 6.2 0 12.4-2.3 18.4-4.6 5.6-2.2 10.9-4.1 15.7-4.1 9.7 0 15.2 4.2 15.3 4.2.5.4 1 .4 1.4.4.5.1 1.1-.1 1.4-.4.1 0 5.5-4.2 15.3-4.2 4.9 0 10.1 2 15.7 4.1 6 2.2 12.1 4.6 18.4 4.6 11.9 0 19.5-5.3 19.8-5.5.5-.4.8-1 .8-1.6 0 0 .1-13.8.1-27.7.2-7 .2-14 .2-19.2zm-88.2 41.3c-5.6 0-11.4 2.2-17.1 4.4-5.6 2.2-11.5 4.3-16.9 4.3-8.5 0-14.6-3-16.7-4.2-.1-17.8-.1-42.4-.1-51.1 2.3 1.1 5.7 2.4 10 3.2l.5 39.7c0 .6.3 1.2.7 1.5.4.3 8.6 6.5 20.3 2.2 1.8-.7 3.6-1.4 5.3-2.2 7.3-3.1 13.1-5.6 18.7-2 2.8 1.8 5.5 4.4 7.3 6.4-2.7-1.2-6.9-2.2-12-2.2zm14.4-47.8l-.5 46.3c-1.9-1.9-4.3-4.1-7-5.8-2.7-1.7-5.4-2.4-8.1-2.4-4.7 0-9.4 2-14.3 4-1.7.7-3.4 1.4-5.2 2.2-7.8 3-13.7.1-15.7-1.1l-.5-38.2-.1-3.9-.2-13.6c5.9 4.5 12.5 5.5 20.5 3.3l2.4-.6c7.8-2.2 12.9-3.6 18.7-1.9 4.9 1.4 7.6 4.7 9 6.9l1.1 2.2v1.3l-.1 1.3zm4.5 46.2l-.5-47.7v-1.3c.2-.4.5-1.1.9-1.9 1.3-2.3 4-5.8 9.1-7.3 5.8-1.7 11-.3 18.7 1.9l2.4.6c8 2.2 14.6 1.1 20.5-3.3l-.2 13.8-.1 3.9-.5 38.2c-2 1.3-7.9 4-15.7 1.1-1.8-.6-3.5-1.4-5.2-2.2-7.8-3.2-15-6.4-22.4-1.6-2.6 1.6-5.1 3.9-7 5.8 0-.1 0 0 0 0zm65.3 6c-2.1 1.3-8.1 4.2-16.7 4.2-5.4 0-11.3-2.2-16.9-4.3-5.7-2.2-11.5-4.4-17.1-4.4-5.7 0-10.1 1.3-13.1 2.5 1.8-1.9 4.7-4.8 7.7-6.6 5.6-3.6 11.4-1.2 18.7 2 1.7.7 3.5 1.5 5.3 2.2 11.6 4.4 19.9-1.9 20.3-2.2.5-.4.7-.9.7-1.5l.5-39.6c4.6-.7 8.2-2.2 10.6-3.3.1 8.6 0 33.3 0 51z" fill="#C4C9C7" data-color="2"></path>
    </g>
</svg>