<svg preserveAspectRatio="xMidYMid meet" id="comp-kffocwb3svgcontent" data-bbox="37.5 17.5 125.1 165" viewBox="37.5 17.5 125.1 165" height="70" width="70" xmlns="http://www.w3.org/2000/svg" data-type="color" role="img">
    <g>
        <path d="M158.2 182.5H41.8c-2.4 0-4.3-1.9-4.3-4.2V38.7c0-2.3 1.9-4.2 4.3-4.2h116.5c2.4 0 4.3 1.9 4.3 4.2v139.6c-.1 2.3-2 4.2-4.4 4.2zM46 174h108V42.9H46V174z" fill="#C4C9C7" data-color="1"></path>
        <path d="M111.4 37.2c-2.4 0-4.3-1.9-4.3-4.2 0-3.9-3.2-7.1-7.1-7.1s-7.1 3.2-7.1 7.1c0 2.3-1.9 4.2-4.3 4.2s-4.3-1.9-4.3-4.2c0-8.6 7-15.5 15.6-15.5s15.6 7 15.6 15.5c.1 2.3-1.8 4.2-4.1 4.2z" fill="#C4C9C7" data-color="1"></path>
        <path d="M127.8 62.6H72.2c-2.4 0-4.3-1.9-4.3-4.2V41.5c0-2.3 1.9-4.2 4.3-4.2s4.3 1.9 4.3 4.2v12.7h47V41.5c0-2.3 1.9-4.2 4.3-4.2s4.3 1.9 4.3 4.2v16.9c-.1 2.3-2 4.2-4.3 4.2z" fill="#C4C9C7" data-color="1"></path>
        <path d="M72.3 113.4c-2 0-3.6-1.6-3.6-3.5V90.1c0-1.9 1.6-3.5 3.6-3.5s3.6 1.6 3.6 3.5v19.7c0 2-1.6 3.6-3.6 3.6z" fill="rgb(249, 116, 37)" data-color="2"></path>
        <path d="M82.2 103.5H62.4c-2 0-3.6-1.6-3.6-3.5s1.6-3.5 3.6-3.5h19.9c2 0 3.6 1.6 3.6 3.5s-1.7 3.5-3.7 3.5z" fill="rgb(249, 116, 37)" data-color="2"></path>
        <path d="M137.6 86.6h-36.9c-2 0-3.6-1.6-3.6-3.5s1.6-3.5 3.6-3.5h36.9c2 0 3.6 1.6 3.6 3.5s-1.6 3.5-3.6 3.5z" fill="rgb(249, 116, 37)" data-color="2"></path>
        <path d="M137.6 103.5h-36.9c-2 0-3.6-1.6-3.6-3.5s1.6-3.5 3.6-3.5h36.9c2 0 3.6 1.6 3.6 3.5s-1.6 3.5-3.6 3.5z" fill="rgb(249, 116, 37)" data-color="2"></path>
        <path d="M137.6 120.4h-36.9c-2 0-3.6-1.6-3.6-3.5s1.6-3.5 3.6-3.5h36.9c2 0 3.6 1.6 3.6 3.5s-1.6 3.5-3.6 3.5z" fill="rgb(249, 116, 37)" data-color="2"></path>
        <path d="M137.6 138.1H63.8c-2 0-3.6-1.6-3.6-3.5s1.6-3.5 3.6-3.5h73.9c2 0 3.6 1.6 3.6 3.5-.1 1.9-1.7 3.5-3.7 3.5z" fill="#C4C9C7" data-color="1"></path>
        <path d="M137.6 155H63.8c-2 0-3.6-1.6-3.6-3.5s1.6-3.5 3.6-3.5h73.9c2 0 3.6 1.6 3.6 3.5-.1 1.9-1.7 3.5-3.7 3.5z" fill="#C4C9C7" data-color="1"></path>
    </g>
</svg>