<svg preserveAspectRatio="xMidYMid meet" id="comp-kddyudzpsvgcontent" data-bbox="25.25 19.497 149.631 160.88" viewBox="25.25 19.497 149.631 160.88" height="70" width="200" xmlns="http://www.w3.org/2000/svg" data-type="tint" role="img">
    <g>
        <path d="M174.881 118.377c-.021-16.893-12.823-31.028-29.631-32.718V28.377h-36.593l-3.775-8.88H65.619l-3.776 8.88H25.25v152h120V151.1c16.809-1.691 29.612-15.829 29.631-32.723zM69.587 25.5h31.326l4.8 11.294H64.786L69.587 25.5zM31.25 174.377v-140h28.042l-3.578 8.414h59.071l-3.577-8.414h28.042V85.62c-18.091 1.514-31.53 17.407-30.016 35.499 1.338 15.991 14.026 28.678 30.016 30.016v23.242h-108zM142 145.259c-14.846 0-26.881-12.035-26.881-26.881S127.154 91.497 142 91.497s26.88 12.034 26.881 26.88c-.017 14.839-12.042 26.865-26.881 26.882z" fill="#C4C9C7"></path>
        <path d="M138.036 122.6l-7.02-5.7-3.784 4.656 8.871 7.207a3.385 3.385 0 0 0 4.594-.28l16.336-16.9-4.314-4.17-14.683 15.187z" fill="#C4C9C7"></path>
        <path fill="#C4C9C7" d="M112 72.503v5.994H44v-5.994h68z"></path>
        <path fill="#C4C9C7" d="M88.909 102.253v6H44v-6h44.909z"></path>
        <path fill="#C4C9C7" d="M75.091 130.503v7H44v-7h31.091z"></path>
    </g>
</svg>